<svg width="8" height="8" viewBox="0 0 8 8" fill="none" xmlns="http://www.w3.org/2000/svg">
<g clip-path="url(#clip0_838_36)">
<path d="M3.99935 7.33335C3.34008 7.33335 2.69561 7.13785 2.14745 6.77159C1.59929 6.40532 1.17205 5.88472 0.919753 5.27562C0.667459 4.66655 0.601449 3.99632 0.730066 3.34972C0.858683 2.70312 1.17615 2.10917 1.64233 1.643C2.1085 1.17682 2.70245 0.859354 3.34905 0.730737C3.99565 0.602121 4.66588 0.668131 5.27495 0.920424C5.88405 1.17272 6.40465 1.59996 6.77091 2.14812C7.13718 2.69628 7.33268 3.34075 7.33268 4.00002C7.33172 4.88379 6.98022 5.73105 6.35532 6.35599C5.73038 6.98089 4.88312 7.33239 3.99935 7.33335ZM3.99935 5.00002C3.93342 5.00002 3.86898 5.01959 3.81415 5.05619C3.75935 5.09282 3.71662 5.14489 3.69138 5.20579C3.66615 5.26669 3.65955 5.33372 3.67242 5.39839C3.68528 5.46305 3.71702 5.52245 3.76365 5.56905C3.81028 5.61569 3.86965 5.64742 3.93432 5.66029C3.99898 5.67315 4.06602 5.66655 4.12692 5.64132C4.18782 5.61609 4.23988 5.57335 4.27652 5.51855C4.31315 5.46372 4.33268 5.39929 4.33268 5.33335C4.33268 5.24495 4.29755 5.16015 4.23505 5.09765C4.17255 5.03515 4.08775 5.00002 3.99935 5.00002ZM3.99935 2.33335C3.91095 2.33335 3.82615 2.36847 3.76365 2.43099C3.70115 2.4935 3.66602 2.57828 3.66602 2.66669V4.33335C3.66602 4.42175 3.70115 4.50655 3.76365 4.56905C3.82615 4.63155 3.91095 4.66669 3.99935 4.66669C4.08775 4.66669 4.17255 4.63155 4.23505 4.56905C4.29755 4.50655 4.33268 4.42175 4.33268 4.33335V2.66669C4.33268 2.57828 4.29755 2.4935 4.23505 2.43099C4.17255 2.36847 4.08775 2.33335 3.99935 2.33335Z" fill="#EB5757"/>
</g>
<defs>
<clipPath id="clip0_838_36">
<rect width="8" height="8" fill="white"/>
</clipPath>
</defs>
</svg>