<svg width="8" height="8" viewBox="0 0 8 8" fill="none" xmlns="http://www.w3.org/2000/svg">
<g clip-path="url(#clip0_828_84)">
<path fill-rule="evenodd" clip-rule="evenodd" d="M4 0C6.20898 0 8 1.79102 8 4C8 6.20898 6.20898 8 4 8C1.79102 8 0 6.20898 0 4C0 1.79102 1.79102 0 4 0ZM3.44531 1.98698H3.93424C4.02344 1.98698 4.09701 2.06055 4.09701 2.14974V4.03385H5.81641C5.90625 4.03385 5.97917 4.10742 5.97917 4.19661V4.68555C5.97917 4.77539 5.9056 4.84831 5.81641 4.84831H3.2819V2.14974C3.2819 2.0599 3.35547 1.98698 3.44531 1.98698ZM4 0.908203C5.70768 0.908203 7.0918 2.29232 7.0918 4C7.0918 5.70768 5.70768 7.0918 4 7.0918C2.29232 7.0918 0.908203 5.70768 0.908203 4C0.908203 2.29297 2.29232 0.908203 4 0.908203Z" fill="#4169E1"/>
</g>
<defs>
<clipPath id="clip0_828_84">
<rect width="8" height="8" fill="white"/>
</clipPath>
</defs>
</svg>