<svg width="25" height="25" viewBox="0 0 25 25" fill="none" xmlns="http://www.w3.org/2000/svg">
<g clip-path="url(#clip0_647_138)">
<path d="M8.44302 12.5262C8.09718 11.9694 7.43662 11.212 7.43662 10.5584C7.44442 10.3463 7.51612 10.1415 7.64232 9.97083C7.76853 9.80019 7.94335 9.67166 8.14387 9.6021C8.11101 9.04876 8.08854 8.4885 8.08854 7.93342C8.08854 7.60487 8.08854 7.27459 8.10756 6.94777C8.12892 6.78088 8.16835 6.61679 8.22514 6.45841C8.47723 5.62305 9.03227 4.91199 9.78143 4.46463C10.0493 4.29955 10.3339 4.16333 10.6305 4.05827C11.1648 3.8646 10.9123 3.0121 11.5106 3C12.894 2.96541 15.1558 4.17067 16.0394 5.12692C16.5992 5.70626 16.9213 6.47448 16.9421 7.27978L16.885 9.70067C17.0157 9.72797 17.1375 9.78774 17.239 9.87448C17.3405 9.96121 17.4186 10.0721 17.466 10.197C17.6459 10.9543 16.8539 11.9002 16.4873 12.5106C16.1414 13.0709 14.8532 14.5961 14.8515 14.6099C14.8614 14.712 14.9025 14.8085 14.969 14.8866C15.0953 15.0583 15.2383 15.2171 15.3962 15.3604C14.644 16.1556 14.1553 17.1635 13.9969 18.2465C13.8385 19.3296 14.0179 20.4352 14.5108 21.4126H2C2 15.9016 7.91216 17.6498 9.92149 14.8866C10.0218 14.7396 10.0667 14.6618 10.065 14.5978C10.065 14.5632 8.57617 12.7389 8.44302 12.5227V12.5262Z" fill="white"/>
<path d="M19.2607 15.0249C20.1833 15.0248 21.0774 15.3447 21.7906 15.9299C22.5038 16.5152 22.9919 17.3297 23.1719 18.2345C23.3519 19.1394 23.2126 20.0787 22.7776 20.8923C22.3427 21.706 21.639 22.3436 20.7866 22.6966C19.9342 23.0496 18.9858 23.0961 18.103 22.8282C17.2201 22.5602 16.4575 21.9945 15.9451 21.2273C15.4327 20.4601 15.2021 19.5389 15.2927 18.6208C15.3834 17.7026 15.7895 16.8443 16.4421 16.1921C16.812 15.8216 17.2513 15.5278 17.735 15.3275C18.2187 15.1272 18.7372 15.0244 19.2607 15.0249ZM21.5398 17.7709L18.0278 21.2812C18.1858 21.3685 18.3528 21.4386 18.5258 21.4904C18.9735 21.6238 19.4489 21.6338 19.9018 21.5193C20.3547 21.4049 20.7682 21.1703 21.0988 20.8402C21.4931 20.4443 21.749 19.9317 21.8285 19.3787C21.9079 18.8257 21.8067 18.2617 21.5398 17.7709ZM16.992 20.254L20.5023 16.742C20.1222 16.5323 19.6948 16.4234 19.2607 16.4256C18.8581 16.427 18.4613 16.5222 18.1018 16.7036C17.7424 16.885 17.4301 17.1475 17.1896 17.4705C16.9492 17.7935 16.7873 18.168 16.7167 18.5644C16.646 18.9608 16.6687 19.3682 16.7827 19.7543C16.8342 19.9279 16.9043 20.0955 16.992 20.254Z" fill="#D8453E"/>
</g>
<defs>
<clipPath id="clip0_647_138">
<rect width="21.2485" height="20" fill="white" transform="translate(2 3)"/>
</clipPath>
</defs>
</svg>