<svg width="30" height="36" viewBox="0 0 30 36" fill="none" xmlns="http://www.w3.org/2000/svg">
<g clip-path="url(#clip0_828_98)">
<path fill-rule="evenodd" clip-rule="evenodd" d="M14.9986 0C23.2416 0 29.9229 3.12934 29.9229 6.98392C29.9229 10.8413 23.2388 13.9678 14.9986 13.9678C6.75835 13.9678 0.0742362 10.8385 0.0742362 6.98392C0.0742362 3.12934 6.75835 0 14.9986 0ZM0.0742362 23.3644V28.7266C2.72961 38.1574 28.9635 36.3358 29.9258 28.244V22.8876C28.6152 31.7703 2.17284 32.4098 0.0742362 23.3644ZM0 9.40516V14.6417C2.65537 23.8527 29.0349 22.6078 30 14.7073V9.47368C28.6866 18.1508 2.0986 18.2393 0 9.40516ZM0 16.1721V21.5342C2.65537 30.9651 29.0349 29.6916 30 21.5999V16.2435C28.6866 25.1261 2.0986 25.2175 0 16.1721Z" fill="#BB6BD9" fill-opacity="0.5"/>
</g>
<defs>
<clipPath id="clip0_828_98">
<rect width="30" height="35.0852" fill="white"/>
</clipPath>
</defs>
</svg>