<svg width="6" height="5" viewBox="0 0 6 5" fill="none" xmlns="http://www.w3.org/2000/svg">
<g clip-path="url(#clip0_831_157)">
<path d="M0.21631 3.10704C0.0762184 2.97252 0.00380452 2.79356 0.00014232 2.61338C-0.00347105 2.43325 0.0617161 2.25145 0.196192 2.11136C0.33057 1.97137 0.50953 1.89891 0.689661 1.89529C0.86989 1.89158 1.05158 1.95657 1.19177 2.0912L2.40211 3.25583L4.81178 0.194813L4.89811 0.260683L4.81169 0.19452C4.81857 0.185584 4.82638 0.177967 4.83507 0.171765C4.97844 0.0475924 5.15837 -0.0084637 5.33426 0.00110685V0.000911533L5.34285 0.0016928C5.51976 0.0134118 5.69257 0.0920271 5.82016 0.234413C5.94995 0.379192 6.00879 0.563083 5.99897 0.742824H5.99917L5.99838 0.751418C5.98686 0.925153 5.91093 1.09493 5.77333 1.22174L2.88146 4.74185L2.88166 4.74204C2.87624 4.74893 2.87013 4.75484 2.86349 4.76001C2.72809 4.87891 2.55709 4.93721 2.38707 4.93428C2.21563 4.93131 2.04453 4.86612 1.91142 4.73819L0.21631 3.10704Z" fill="#27AE60"/>
</g>
<defs>
<clipPath id="clip0_831_157">
<rect width="6" height="4.9343" fill="white"/>
</clipPath>
</defs>
</svg>
