<svg width="25" height="25" viewBox="0 0 25 25" fill="none" xmlns="http://www.w3.org/2000/svg">
<g clip-path="url(#clip0_647_129)">
<path fill-rule="evenodd" clip-rule="evenodd" d="M3.37883 10.2559L22.0963 3.06022C22.2029 3.00727 22.3231 2.98779 22.441 3.00432C22.5589 3.02086 22.6691 3.07264 22.7571 3.15288C22.8451 3.23312 22.9068 3.33807 22.9341 3.45398C22.9614 3.56988 22.953 3.69133 22.9101 3.8024L15.7486 22.6191C15.7076 22.7274 15.6358 22.8212 15.542 22.8889C15.4481 22.9567 15.3365 22.9954 15.2209 23.0002C15.1052 23.0051 14.9907 22.9759 14.8916 22.9162C14.7924 22.8566 14.7129 22.7691 14.663 22.6647L11.7773 16.6947L17.5048 8.49641L9.32284 14.2077L3.33488 11.3398C3.2309 11.2899 3.14383 11.2105 3.08441 11.1117C3.02499 11.0128 2.99581 10.8987 3.00049 10.7834C3.00516 10.6681 3.04347 10.5568 3.11071 10.463C3.17794 10.3693 3.27115 10.2972 3.37883 10.2559Z" fill="white"/>
</g>
<defs>
<clipPath id="clip0_647_129">
<rect width="19.9479" height="20" fill="white" transform="translate(3 3)"/>
</clipPath>
</defs>
</svg>