<svg width="22" height="20" viewBox="0 0 22 20" fill="none" xmlns="http://www.w3.org/2000/svg">
<g clip-path="url(#clip0_931_35)">
<path d="M6.44302 9.52619C6.09718 8.96939 5.43662 8.212 5.43662 7.55836C5.44442 7.34626 5.51612 7.14147 5.64232 6.97083C5.76853 6.80019 5.94335 6.67166 6.14387 6.6021C6.11101 6.04876 6.08854 5.4885 6.08854 4.93342C6.08854 4.60487 6.08854 4.27459 6.10756 3.94777C6.12892 3.78088 6.16835 3.61679 6.22514 3.45841C6.47723 2.62305 7.03227 1.91199 7.78143 1.46463C8.04928 1.29955 8.33389 1.16333 8.63047 1.05827C9.16479 0.864598 8.91233 0.0120996 9.51063 -4.81383e-06C10.894 -0.0345889 13.1558 1.17067 14.0394 2.12692C14.5992 2.70626 14.9213 3.47448 14.9421 4.27978L14.885 6.70067C15.0157 6.72797 15.1375 6.78774 15.239 6.87448C15.3405 6.96121 15.4186 7.07211 15.466 7.19695C15.6459 7.95434 14.8539 8.90022 14.4873 9.51063C14.1414 10.0709 12.8532 11.5961 12.8515 11.6099C12.8614 11.712 12.9025 11.8085 12.969 11.8866C13.0953 12.0583 13.2383 12.2171 13.3962 12.3604C12.644 13.1556 12.1553 14.1635 11.9969 15.2465C11.8385 16.3296 12.0179 17.4352 12.5108 18.4126H0C0 12.9016 5.91216 14.6498 7.92149 11.8866C8.02179 11.7396 8.06675 11.6618 8.06502 11.5978C8.06502 11.5632 6.57617 9.73888 6.44302 9.52273V9.52619Z" fill="white"/>
<g clip-path="url(#clip1_931_35)">
<path fill-rule="evenodd" clip-rule="evenodd" d="M19.332 15.3031C19.7078 15.3002 20.0119 15.6025 20.0111 15.9785C20.0102 16.3543 19.7049 16.6614 19.3291 16.6643L17.6808 16.6758L17.6693 18.3259C17.6662 18.6986 17.3592 19.0004 16.9837 19C16.6081 18.9995 16.3063 18.6968 16.3093 18.324L16.3207 16.6853L14.6791 16.6968C14.3033 16.6998 13.9992 16.3974 14 16.0215C14.0009 15.6457 14.3063 15.3386 14.6821 15.3358L16.3303 15.3242L16.3419 13.6741C16.345 13.3014 16.6519 12.9996 17.0274 13C17.4031 13.0004 17.7049 13.3032 17.7018 13.676L17.6904 15.3147L19.332 15.3031Z" fill="white"/>
</g>
</g>
<defs>
<clipPath id="clip0_931_35">
<rect width="21.2485" height="20" fill="white"/>
</clipPath>
<clipPath id="clip1_931_35">
<rect width="6.01111" height="6" fill="white" transform="translate(14 13)"/>
</clipPath>
</defs>
</svg>