<svg width="20" height="20" viewBox="0 0 20 20" fill="none" xmlns="http://www.w3.org/2000/svg">
<g clip-path="url(#clip0_647_57)">
<path d="M10.0002 0C12.7612 0 15.262 1.11955 17.0714 2.92896C18.8808 4.73837 20.0004 7.2392 20.0004 10.0002C20.0004 12.7612 18.8808 15.2616 17.0714 17.071C15.262 18.8804 12.7612 20 10.0002 20C7.2392 20 4.73837 18.8804 2.92896 17.071C1.11955 15.2616 0 12.7612 0 10.0002C0 7.2392 1.11955 4.73837 2.92896 2.92896C4.73837 1.11955 7.2392 0 10.0002 0ZM9.25174 5.33018C9.25174 4.91728 9.5873 4.58173 10.0002 4.58173C10.4131 4.58173 10.7486 4.91728 10.7486 5.33018V7.77359C10.7486 8.18649 10.4131 8.52204 10.0002 8.52204C9.5873 8.52204 9.25174 8.18649 9.25174 7.77359V5.33018ZM12.101 7.37905C11.7819 7.11928 11.733 6.64896 11.9924 6.32942C12.2522 6.01027 12.7229 5.96144 13.0421 6.22122C13.5991 6.67279 14.053 7.24467 14.3624 7.89469C14.662 8.524 14.83 9.22831 14.83 9.96973C14.83 11.3033 14.289 12.5112 13.4155 13.3846L13.3698 13.4268C12.4983 14.2761 11.3084 14.7991 10.0002 14.7991C8.6697 14.7991 7.46147 14.2577 6.58685 13.3827C5.71144 12.5112 5.17041 11.3033 5.17041 9.96973C5.17041 9.23182 5.338 8.52985 5.63683 7.90055C5.9466 7.24858 6.39973 6.67552 6.95365 6.22473C7.2728 5.96496 7.74351 6.01379 8.00289 6.33294C8.26266 6.65247 8.21383 7.1228 7.89469 7.38257C7.51343 7.69312 7.20092 8.08805 6.98764 8.53767C6.78255 8.96893 6.66732 9.45526 6.66732 9.96973C6.66732 10.8901 7.04115 11.7233 7.64351 12.326C8.2443 12.9303 9.07791 13.3022 10.0002 13.3022C10.9049 13.3022 11.7241 12.9436 12.3221 12.3627L12.3569 12.326C12.9592 11.7233 13.3331 10.8901 13.3331 9.96973C13.3331 9.45604 13.2174 8.9701 13.0116 8.53767C12.798 8.08855 12.4869 7.69273 12.101 7.37905ZM16.1234 3.87703C14.5565 2.31059 12.3913 1.34104 10.0002 1.34104C7.60913 1.34104 5.44386 2.31059 3.87703 3.87703C2.31059 5.44386 1.34104 7.60913 1.34104 10.0002C1.34104 12.3913 2.31059 14.5561 3.87703 16.123C5.44386 17.6894 7.60913 18.659 10.0002 18.659C12.3913 18.659 14.5565 17.6894 16.1234 16.123C17.6898 14.5561 18.6593 12.3913 18.6593 10.0002C18.6593 7.60913 17.6898 5.44386 16.1234 3.87703Z" fill="white"/>
</g>
<defs>
<clipPath id="clip0_647_57">
<rect width="20.0004" height="20" fill="white"/>
</clipPath>
</defs>
</svg>