<svg width="25" height="25" viewBox="0 0 25 25" fill="none" xmlns="http://www.w3.org/2000/svg">
<g clip-path="url(#clip0_968_40)">
<path d="M9.98129 0.258383C10.4227 0.166837 10.8642 0.101738 11.2995 0.0590173C11.7471 0.0162962 12.1906 -0.00404719 12.628 2.14871e-05C12.8741 0.00205583 13.0715 0.203455 13.0694 0.449611C13.0674 0.638804 12.9474 0.799517 12.7805 0.862581C10.9191 1.59494 9.42999 2.95999 8.51657 4.65052C7.61739 6.31258 7.27562 8.28792 7.68452 10.2816L7.68656 10.2958C8.15242 12.5458 9.48288 14.395 11.2629 15.5668C13.0409 16.7386 15.2645 17.2309 17.5145 16.7711L17.5287 16.7691C19.148 16.4334 20.5578 15.6522 21.6584 14.5761C22.7976 13.4633 23.6032 12.0372 23.9633 10.4748C24.0182 10.2348 24.2583 10.0863 24.4963 10.1412C24.6774 10.1839 24.8076 10.3304 24.836 10.5033C25.3731 13.7989 24.5614 17.0274 22.7895 19.5988C21.0257 22.158 18.3078 24.0683 15.0224 24.7437C11.6413 25.4394 8.29889 24.6989 5.6278 22.9413C2.95468 21.1775 0.954927 18.4006 0.259183 15.0196C-0.420287 11.7178 0.269354 8.4527 1.93955 5.81416C3.61788 3.16749 6.28286 1.14739 9.54391 0.356031C9.60697 0.339756 9.68021 0.323482 9.75955 0.305172H9.76158L9.98129 0.258383Z" fill="#7728B5"/>
</g>
<defs>
<clipPath id="clip0_968_40">
<rect width="24.998" height="25" rx="12.499" fill="white"/>
</clipPath>
</defs>
</svg>