<svg width="30" height="30" viewBox="0 0 30 30" fill="none" xmlns="http://www.w3.org/2000/svg">
<g clip-path="url(#clip0_828_91)">
<path d="M21.7381 12.268C20.7298 14.0869 19.5677 15.8325 18.0589 17.4243C16.5453 19.0259 14.6629 20.4834 12.2264 21.7285C12.0457 21.8164 11.8748 21.8164 11.721 21.7553C11.4891 21.6675 11.2523 21.4746 11.0204 21.2426C10.8397 21.062 10.6151 20.7739 10.3807 20.459C9.4432 19.226 8.28354 17.6953 6.64535 18.4619C6.60873 18.479 6.58188 18.4985 6.54526 18.5132L1.08139 21.6552C1.0643 21.665 1.04477 21.6821 1.03012 21.6919C0.309902 22.1875 0.0120525 22.9516 0.00472832 23.8183C0.00472832 24.6997 0.329435 25.6909 0.80551 26.5283C1.43539 27.6343 2.36313 28.3667 3.43246 28.8501C4.45053 29.3188 5.58334 29.5703 6.67221 29.7314C8.38119 29.9829 9.98276 29.8217 11.6209 29.3188C13.2225 28.8232 14.8363 28.0053 16.599 26.9165L16.7284 26.8335C17.5365 26.3281 18.4105 25.7885 19.2674 25.1513C22.4022 22.7832 25.598 19.3628 27.6805 15.5981C29.4261 12.4389 30.3783 9.02829 29.8582 5.77878C29.5702 3.99656 28.806 2.37546 27.473 1.30613C26.3109 0.368626 24.7459 -0.144069 22.7196 0.0365948C22.4876 0.0536846 22.2801 0.187962 22.1703 0.388157L18.6668 6.31101C18.1541 6.97507 18.0907 7.63425 18.3714 8.29343C18.6034 8.83298 19.0721 9.33103 19.7118 9.7949C19.8997 9.95603 20.1244 10.1196 20.3612 10.2905C21.1449 10.8593 22.036 11.5161 21.7308 12.2876L21.7381 12.268Z" fill="#27AE60" fill-opacity="0.5"/>
</g>
<defs>
<clipPath id="clip0_828_91">
<rect width="30" height="29.8511" fill="white" transform="matrix(-1 0 0 1 30 0)"/>
</clipPath>
</defs>
</svg>