<svg width="16" height="20" viewBox="0 0 16 20" fill="none" xmlns="http://www.w3.org/2000/svg">
<g clip-path="url(#clip0_996_198)">
<path fill-rule="evenodd" clip-rule="evenodd" d="M0.470703 9.12044H1.92887V8.94548V6.04118C1.92887 4.38021 2.60872 2.86995 3.70264 1.77572V1.77425C4.79704 0.67985 6.30762 0 7.96973 0C9.63053 0 11.1408 0.67985 12.2352 1.77425L12.2368 1.77572C13.3307 2.86995 14.0106 4.38021 14.0106 6.04118V8.94548V9.12044H15.172C15.4308 9.12044 15.6427 9.33236 15.6427 9.59098V19.5295C15.6427 19.7881 15.4308 20 15.172 20H0.470703C0.211914 20 0 19.7881 0 19.5295V9.59098C0 9.33236 0.211914 9.12044 0.470703 9.12044ZM4.27588 9.12044H11.6631V8.94548V6.00765C11.6631 4.99202 11.2474 4.06803 10.5788 3.3986L10.578 3.39925C9.90885 2.72966 8.98503 2.3138 7.96973 2.3138C6.95394 2.3138 6.03011 2.72949 5.36019 3.3986C4.69141 4.06803 4.27588 4.99202 4.27588 6.00765V8.94564V9.12044ZM7.99951 14.5586L8.74512 17.9992L6.70133 18.0078L7.30111 14.521C6.74268 14.342 6.33789 13.8187 6.33789 13.2008C6.33789 12.4357 6.95801 11.8156 7.72347 11.8156C8.48812 11.8156 9.10872 12.4357 9.10872 13.2008C9.10872 13.8714 8.63216 14.4308 7.99951 14.5586Z" fill="#418DFF"/>
</g>
<defs>
<clipPath id="clip0_996_198">
<rect width="15.6426" height="20" fill="white"/>
</clipPath>
</defs>
</svg>
