<svg width="25" height="25" viewBox="0 0 25 25" fill="none" xmlns="http://www.w3.org/2000/svg">
<g clip-path="url(#clip0_995_185)">
<path fill-rule="evenodd" clip-rule="evenodd" d="M20.6687 2.99077L22.4627 4.78503C22.9349 5.25725 22.9349 6.02976 22.4627 6.50198L21.018 7.9467C21.4166 8.69094 21.7207 9.49316 21.9142 10.3377H23.7858C24.4537 10.3377 25.0002 10.8842 25.0002 11.5519V14.0892C25.0002 14.7571 24.4537 15.3036 23.7858 15.3036H21.7433C21.4929 16.1302 21.1346 16.9101 20.6845 17.6266L22.0094 18.9511C22.4816 19.4237 22.4816 20.1963 22.0094 20.6683L20.2154 22.4625C19.7432 22.9345 18.9704 22.9345 18.4984 22.4625L17.0535 21.0176C16.3095 21.4164 15.507 21.7207 14.6623 21.914V23.7856C14.6623 24.4533 14.116 24.9998 13.4481 24.9998H10.911C10.2431 24.9998 9.69661 24.4533 9.69661 23.7856V21.7431C8.86998 21.4925 8.09014 21.1342 7.37378 20.6841L6.04909 22.009C5.57647 22.4812 4.80395 22.4812 4.33174 22.009L2.53768 20.215C2.06546 19.7428 2.06546 18.9702 2.53768 18.498L3.98261 17.0531C3.58384 16.3091 3.27947 15.5068 3.08639 14.6623H1.21421C0.546477 14.6623 0 14.116 0 13.4481V10.9108C0 10.2429 0.546477 9.69661 1.21421 9.69661H3.25669C3.50734 8.86998 3.86562 8.09014 4.31546 7.37357L2.99077 6.04909C2.51855 5.57667 2.51855 4.80395 2.99077 4.33194L4.78503 2.53768C5.25725 2.06546 6.02976 2.06546 6.50198 2.53768L7.9467 3.98241C8.69094 3.58364 9.49316 3.27927 10.3379 3.08599V1.21442C10.3379 0.546477 10.8844 0 11.5521 0H14.0894C14.7571 0 15.3036 0.546477 15.3036 1.21442V3.25628C16.1304 3.50673 16.9105 3.86501 17.6274 4.31505L18.9513 2.99077C19.4239 2.51855 20.1965 2.51855 20.6687 2.99077ZM12.5002 7.51151C15.255 7.51151 17.4887 9.74544 17.4887 12.5C17.4887 15.2544 15.255 17.4885 12.5002 17.4885C9.74564 17.4885 7.51172 15.2546 7.51172 12.5C7.51172 9.74544 9.74564 7.51151 12.5002 7.51151Z" fill="white"/>
</g>
<defs>
<clipPath id="clip0_995_185">
<rect width="25.0004" height="25" fill="white"/>
</clipPath>
</defs>
</svg>