<svg width="25" height="25" viewBox="0 0 25 25" fill="none" xmlns="http://www.w3.org/2000/svg">
<g clip-path="url(#clip0_647_121)">
<path fill-rule="evenodd" clip-rule="evenodd" d="M2 6.3986C2 6.26156 2.02699 6.12586 2.07944 5.99925C2.13188 5.87264 2.20875 5.7576 2.30565 5.6607C2.40255 5.5638 2.51759 5.48693 2.6442 5.43449C2.77081 5.38204 2.90651 5.35505 3.04355 5.35505C3.18059 5.35505 3.31629 5.38204 3.4429 5.43449C3.56951 5.48693 3.68455 5.5638 3.78146 5.6607C3.87836 5.7576 3.95523 5.87264 4.00767 5.99925C4.06011 6.12586 4.08711 6.26156 4.08711 6.3986V19.9112H22.2221C22.4991 19.9112 22.7647 20.0212 22.9606 20.2171C23.1565 20.4129 23.2665 20.6786 23.2665 20.9556C23.2665 21.2326 23.1565 21.4982 22.9606 21.6941C22.7647 21.89 22.4991 22 22.2221 22H2V6.3986ZM19.6348 5.23737L19.1157 4.5659C19.0765 4.52215 19.0492 4.46919 19.0362 4.41197C19.0232 4.35476 19.0249 4.29517 19.0412 4.23881C19.133 3.96711 19.4445 3.99999 19.6677 4.00864C20.2994 4.05364 21.696 4.15401 22.0213 4.16613C22.0749 4.16449 22.1281 4.1753 22.1768 4.19773C22.2254 4.22015 22.2682 4.25356 22.3018 4.29534C22.3353 4.33711 22.3587 4.38611 22.3701 4.43846C22.3815 4.49082 22.3806 4.5451 22.3675 4.59705C22.3017 4.92586 22.0923 6.42283 21.9833 7.01989C21.9452 7.22756 21.8829 7.49927 21.6181 7.5183C21.5598 7.52032 21.502 7.50757 21.4499 7.48125C21.3979 7.45493 21.3534 7.41588 21.3204 7.36774L20.8013 6.69627L20.5884 6.42629L17.989 8.39745V8.44245C17.989 8.85829 17.8238 9.25709 17.5298 9.55114C17.2358 9.84518 16.837 10.0104 16.4211 10.0104C16.0053 10.0104 15.6065 9.84518 15.3124 9.55114C15.0184 9.25709 14.8532 8.85829 14.8532 8.44245C14.8532 8.40783 14.8532 8.37322 14.8532 8.33861L13.0378 7.02508C12.7566 7.21958 12.4196 7.31674 12.078 7.30174C11.7365 7.28674 11.4093 7.1604 11.1462 6.94201L9.38102 8.19843C9.41856 8.33025 9.43892 8.46636 9.44159 8.60339C9.43989 8.93853 9.33013 9.26418 9.12863 9.53198C8.92712 9.79977 8.64461 9.99543 8.32305 10.0899C8.00149 10.1843 7.65805 10.1726 7.34372 10.0563C7.02939 9.94002 6.76095 9.72547 6.57827 9.4445C6.39558 9.16352 6.3084 8.83111 6.32967 8.49665C6.35093 8.16218 6.47952 7.84349 6.69632 7.58792C6.91312 7.33235 7.20658 7.15352 7.5331 7.078C7.85962 7.00248 8.20179 7.0343 8.5088 7.16872L10.5855 5.69079C10.6222 5.29845 10.8052 4.9343 11.0982 4.67081C11.3912 4.40731 11.7726 4.26379 12.1666 4.26881C12.5606 4.27383 12.9383 4.42701 13.2245 4.69789C13.5107 4.96876 13.6843 5.33745 13.711 5.73059C13.711 5.7652 13.711 5.79982 13.711 5.8327L15.5299 7.14796C15.7988 6.96107 16.1195 6.86308 16.4469 6.86773C16.7744 6.87239 17.0921 6.97946 17.3556 7.17391L19.7352 5.36543L19.6348 5.23737ZM19.6193 9.28352H21.7808C21.8406 9.28352 21.898 9.30717 21.9405 9.34931C21.983 9.39145 22.007 9.44867 22.0075 9.5085V17.9088C22.007 17.9688 21.983 18.0262 21.9406 18.0687C21.8982 18.1111 21.8408 18.1351 21.7808 18.1356H19.6193C19.5895 18.1356 19.56 18.1297 19.5325 18.1183C19.505 18.1069 19.48 18.0902 19.459 18.0692C19.4379 18.0481 19.4212 18.0231 19.4098 17.9956C19.3984 17.9681 19.3926 17.9386 19.3926 17.9088V9.5085C19.393 9.44867 19.4171 9.39145 19.4596 9.34931C19.502 9.30717 19.5594 9.28352 19.6193 9.28352ZM15.3412 12.1615H17.5027C17.5325 12.1615 17.562 12.1674 17.5895 12.1788C17.617 12.1902 17.642 12.2069 17.663 12.2279C17.6841 12.249 17.7008 12.274 17.7122 12.3015C17.7236 12.329 17.7294 12.3584 17.7294 12.3882V17.9088C17.729 17.9688 17.705 18.0262 17.6625 18.0687C17.6201 18.1111 17.5627 18.1351 17.5027 18.1356H15.3412C15.3114 18.1356 15.282 18.1297 15.2545 18.1183C15.227 18.1069 15.202 18.0902 15.1809 18.0692C15.1599 18.0481 15.1432 18.0231 15.1318 17.9956C15.1204 17.9681 15.1145 17.9386 15.1145 17.9088V12.3882C15.1145 12.3281 15.1384 12.2704 15.1809 12.2279C15.2234 12.1854 15.2811 12.1615 15.3412 12.1615ZM11.0614 9.28352H13.2247C13.2844 9.28352 13.3416 9.30722 13.3838 9.34941C13.426 9.39161 13.4497 9.44883 13.4497 9.5085V17.9088C13.4492 17.9685 13.4254 18.0257 13.3834 18.068C13.3413 18.1104 13.2844 18.1346 13.2247 18.1356H11.0614C11.0014 18.1351 10.944 18.1111 10.9016 18.0687C10.8592 18.0262 10.8352 17.9688 10.8347 17.9088V9.5085C10.8352 9.44867 10.8593 9.39145 10.9017 9.34931C10.9442 9.30717 11.0016 9.28352 11.0614 9.28352ZM6.78339 12.6253H8.94491C8.97468 12.6253 9.00416 12.6312 9.03167 12.6426C9.05917 12.654 9.08416 12.6707 9.10522 12.6917C9.12627 12.7128 9.14297 12.7378 9.15436 12.7653C9.16575 12.7928 9.17162 12.8223 9.17162 12.852V17.9088C9.17116 17.9688 9.14713 18.0262 9.10472 18.0687C9.0623 18.1111 9.0049 18.1351 8.94491 18.1356H6.78339C6.75361 18.1356 6.72413 18.1297 6.69663 18.1183C6.66912 18.1069 6.64413 18.0902 6.62308 18.0692C6.60203 18.0481 6.58533 18.0231 6.57393 17.9956C6.56254 17.9681 6.55668 17.9386 6.55668 17.9088V12.852C6.55668 12.7919 6.58056 12.7342 6.62308 12.6917C6.66559 12.6492 6.72326 12.6253 6.78339 12.6253Z" fill="white"/>
</g>
<defs>
<clipPath id="clip0_647_121">
<rect width="21.2656" height="18" fill="white" transform="translate(2 4)"/>
</clipPath>
</defs>
</svg>