<svg width="21" height="25" viewBox="0 0 21 25" fill="none" xmlns="http://www.w3.org/2000/svg">
<g clip-path="url(#clip0_996_233)">
<path d="M11.5647 4.42301C14.2039 4.73997 16.6197 6.06101 18.3107 8.11194C20.0017 10.1629 20.838 12.7862 20.646 15.4374C20.4541 18.0886 19.2486 20.5641 17.2799 22.35C15.3111 24.136 12.7302 25.0953 10.0729 25.0288C7.4156 24.9623 4.88593 23.8751 3.00897 21.9929C1.132 20.1107 0.0518815 17.578 -0.00720747 14.9205C-0.0662964 12.263 0.900184 9.68483 2.69163 7.72106C4.48309 5.75728 6.96192 4.55873 9.61365 4.37419V2.64486C9.61365 2.61841 9.61365 2.59196 9.61365 2.56551H7.68087C7.52817 2.56551 7.38172 2.50485 7.27374 2.39687C7.16577 2.2889 7.10511 2.14245 7.10511 1.98975V0.575765C7.10564 0.422876 7.16676 0.276432 7.27506 0.168514C7.38336 0.0605948 7.53002 -9.47783e-07 7.68291 0L13.4955 0C13.648 0.000536164 13.7942 0.0613691 13.902 0.16923C14.0099 0.277091 14.0707 0.423228 14.0713 0.575765V1.98771C14.0713 2.14041 14.0106 2.28686 13.9026 2.39484C13.7946 2.50282 13.6482 2.56348 13.4955 2.56348H11.5607C11.5607 2.58993 11.5607 2.61637 11.5607 2.64282V4.42301H11.5647ZM10.3257 14.7237L17.1983 12.6241C16.7483 11.1522 15.8377 9.86366 14.6005 8.94804C13.3633 8.03242 11.8649 7.53811 10.3257 7.53784V14.7237ZM19.599 7.54191C20.0059 6.58569 19.951 5.58472 19.3772 4.91333C18.6896 4.09953 17.4465 4.01611 16.2909 4.58171C17.5198 5.41768 18.6322 6.41312 19.599 7.54191ZM1.05245 7.54191C0.645552 6.58569 0.698449 5.58472 1.27218 4.91333C1.95984 4.09953 3.20496 4.01611 4.36056 4.58171C3.13091 5.41667 2.01836 6.41222 1.05245 7.54191ZM16.4537 8.54492C15.036 7.12777 13.1708 6.24598 11.1759 6.04978C9.18096 5.85358 7.17973 6.3551 5.51312 7.46892C3.84651 8.58273 2.61762 10.2399 2.03581 12.1582C1.454 14.0764 1.55527 16.137 2.32236 17.989C3.08945 19.841 4.47491 21.3697 6.2427 22.3147C8.01049 23.2597 10.0513 23.5626 12.0173 23.1718C13.9834 22.7809 15.7531 21.7205 17.025 20.1712C18.2969 18.6218 18.9923 16.6794 18.9927 14.6749C18.9943 13.5362 18.7708 12.4085 18.335 11.3565C17.8993 10.3045 17.2599 9.34899 16.4537 8.54492Z" fill="#FFC672"/>
</g>
<defs>
<clipPath id="clip0_996_233">
<rect width="20.6502" height="25" fill="white"/>
</clipPath>
</defs>
</svg>